<?xml version="1.0" encoding="UTF-8"?>
<svg id="Ebene_1" xmlns="http://www.w3.org/2000/svg" version="1.1" viewBox="0 0 688.25 688.24" width="688.25" height="688.24">
  <!-- Generator: Adobe Illustrator 30.6.0, SVG Export Plug-In . SVG Version: 2.1.4 Build 27)  -->
  <defs>
    <style>
      .st0 {
        fill: #e4d4bd;
      }

      .st1 {
        fill: #e4d4c0;
      }

      .st2 {
        fill: #e5d3bf;
      }

      .st3 {
        fill: #1b1b1a;
      }

      .st4 {
        fill: #1c1b1b;
      }

      .st5 {
        fill: #e4d4bc;
      }

      .st6 {
        fill: #1a1a1a;
      }

      .st7 {
        fill: #1b1b1b;
      }

      .st8 {
        fill: #e3d3bf;
      }

      .st9 {
        fill: #e5d6be;
      }
    </style>
  </defs>
  <g id="Generatives_Objekt">
    <g>
      <path class="st7" d="M587.95,682.36c-13.79,4.7-28.26,5.88-42.76,5.88l-405.32-.03c-24.16,0-47.87-6.3-68.57-18.3-7.8-4.52-14.67-9.43-21.48-15.16l-12.35-11.9c-4.56-4.39-8.16-9.2-11.9-14.41-16.64-23.22-24.61-48.88-25.57-77.69L.03,134.76c.63-7.9,1.48-15.55,3-23.21s3.79-14.32,6.42-21.51c9.18-24.18,25.09-45.1,45.51-60.92C78.27,11.03,106.39.96,136.02,0l415.53.13c29.81,0,58.47,11.01,81.8,28.86,18.39,14.07,32.64,32.2,42.32,53.15,4.43,10.02,7.83,20.21,9.92,30.97l2.64,21.44.02,331.94v86.64c-.64,11.62-2.07,22.58-5.26,33.71-9.9,34.51-33.76,64.22-64.65,82.31-5.99,3.51-11.81,6.87-18.33,9.09l-12.06,4.11Z"/>
      <g>
        <path class="st8" d="M502.01,491.57H186.4c-5.09,0-9.67-4.33-9.67-9.61l-.09-155.68.03-42.18c.06-4.35,3.19-8.38,7.66-8.4l25.19-.13c-2.19-30.54,6.78-59.61,23.82-84.41,9.31-13.55,21.23-25.1,34.78-34.32,19-12.92,40.4-20.79,63.25-23.06,11.03-1.1,21.44-.96,32.38.69,28.28,4.28,54.54,17.06,75.01,37.14,9.55,9.37,17.68,19.77,23.97,31.65,12.07,22.38,17.82,46.44,16.09,72.33l23.91.05c4.55,0,8.22,3.11,8.87,7.72v199c-.43,5.21-4.12,8.89-9.59,9.21Z"/>
        <rect class="st7" x="187.34" y="377.24" width="313.67" height="61.28"/>
        <rect class="st4" x="187.35" y="448.89" width="313.68" height="32.15"/>
        <path class="st3" d="M344.72,275.67c-2.3-.15-4.45.15-6.27-1.04-4.02-2.6-5.12-7.76-3.31-12.02s6.36-6.57,11.06-5.68c5.52,1.04,8.64,6.07,7.7,11.49-.79,4.57-4.23,7.58-9.18,7.25Z"/>
        <g>
          <path class="st3" d="M391.28,275.6c3.72-19.41-5.22-38.61-22.02-48.84-18.55-11.3-41.98-8.89-57.9,5.93-11.73,10.92-17.49,26.46-14.63,42.93h-76.64c-1.28-15.09.7-29.98,5.17-44.42,7.39-23.88,21.9-44.77,41.46-60.3,27.67-22.21,65.15-31.52,100.04-25.15,15.19,2.77,29.23,8.03,42.48,16.07,18.39,11.15,33.65,27.13,44.13,45.97,10.94,19.67,17,45.12,14.9,67.83l-77-.02Z"/>
          <path class="st0" d="M294.91,175.41c-33.34,17.92-54.61,51.87-56.08,89.54-.03.72-1.64.99-2.17.85s-1.73-.33-1.72-1.36c.13-24.45,9.09-47.96,24.92-66.63,10.27-12.11,22.92-21.98,37.4-28.57s29.25-10.16,44.9-9.71c1.31.04,1.15,3.33,0,3.36-15.9.45-33.12,4.93-47.24,12.51Z"/>
          <path class="st5" d="M304.74,192.61c-27.7,14.88-43.92,40.63-46.14,71.92-.07,1.04-1.1,1.29-1.73,1.37-.73.1-2.09-.28-2.08-1.44.28-46.92,40.56-85.58,87.19-85.19.88,0,1,1.2.96,1.66s-.11,1.56-.96,1.61c-12.98.77-25.74,3.88-37.25,10.06Z"/>
          <path class="st9" d="M290,230.93c-7.06,10.22-10.61,21.83-11.68,33.9-.09.96-1.34,1.17-1.94,1.04-.79-.17-1.65-.89-1.59-2.08.68-13.18,4.74-25.81,12.48-36.55,12.71-17.63,33.08-28.13,54.86-28.34,1.26-.01,1.29,3.08.27,3.17-8.48.78-16.54,2.4-24.45,5.83-11.3,4.91-20.82,12.71-27.95,23.03Z"/>
        </g>
        <g>
          <rect class="st7" x="187.26" y="286.17" width="313.76" height="80.7"/>
          <g>
            <path class="st1" d="M372.6,348.24l-55.9.19c-5.66.02-11.05-3.06-14.47-7.32-4.74-5.9-5.43-13.82-2.03-20.67,2.97-5.99,9.34-10.71,16.71-10.7l54.41.04c10.67,0,19.27,9.32,18.86,20.08-.35,9.24-7.81,18.35-17.58,18.38Z"/>
            <path class="st6" d="M371.76,320.22c5.36,0,8.46,5.27,8.07,9.69-.43,4.85-4.4,8.3-9.49,8.3l-52.78-.06c-5.14,0-9.06-3.73-9.26-8.59-.18-4.42,3.34-9.34,8.49-9.34h54.99Z"/>
          </g>
        </g>
      </g>
    </g>
    <g>
      <path class="st2" d="M179.64,564.08c-1.48.74-4.45,1.48-8.25,1.48-8.8,0-15.43-5.56-15.43-15.8s6.62-16.4,16.31-16.4c3.89,0,6.35.83,7.41,1.39l-.97,3.29c-1.53-.74-3.71-1.3-6.3-1.3-7.32,0-12.18,4.68-12.18,12.88,0,7.64,4.4,12.55,12,12.55,2.46,0,4.96-.51,6.58-1.3l.83,3.2Z"/>
      <path class="st2" d="M200.99,534.29c2.04-.42,4.96-.65,7.74-.65,4.31,0,7.09.79,9.03,2.55,1.58,1.39,2.46,3.52,2.46,5.93,0,4.12-2.59,6.86-5.88,7.97v.14c2.41.83,3.84,3.06,4.59,6.3,1.02,4.35,1.76,7.37,2.41,8.57h-4.17c-.51-.88-1.2-3.57-2.08-7.46-.93-4.31-2.59-5.93-6.25-6.07h-3.8v13.53h-4.03v-30.81ZM205.02,548.52h4.12c4.31,0,7.04-2.36,7.04-5.93,0-4.03-2.92-5.79-7.18-5.84-1.95,0-3.34.19-3.98.37v11.4Z"/>
      <path class="st2" d="M247.49,555.28l-3.24,9.82h-4.17l10.61-31.22h4.86l10.65,31.22h-4.31l-3.34-9.82h-11.07ZM257.73,552.13l-3.06-8.99c-.69-2.04-1.16-3.89-1.62-5.7h-.09c-.46,1.85-.97,3.75-1.58,5.65l-3.06,9.03h9.4Z"/>
      <path class="st2" d="M289.46,537.31h-9.5v-3.43h23.12v3.43h-9.54v27.79h-4.08v-27.79Z"/>
      <path class="st2" d="M339.03,550.46h-12.14v11.26h13.53v3.38h-17.56v-31.22h16.86v3.38h-12.83v9.87h12.14v3.34Z"/>
      <path class="st2" d="M369.22,565.1l-10.19-31.22h4.35l4.86,15.38c1.34,4.22,2.5,8.01,3.33,11.67h.09c.88-3.61,2.18-7.55,3.57-11.63l5.28-15.43h4.31l-11.16,31.22h-4.45Z"/>
      <path class="st2" d="M406.93,555.28l-3.24,9.82h-4.17l10.61-31.22h4.86l10.66,31.22h-4.31l-3.33-9.82h-11.07ZM417.17,552.13l-3.06-8.99c-.7-2.04-1.16-3.89-1.62-5.7h-.09c-.46,1.85-.97,3.75-1.58,5.65l-3.06,9.03h9.4Z"/>
      <path class="st2" d="M449.27,533.88v18.48c0,7,3.1,9.96,7.27,9.96,4.63,0,7.6-3.06,7.6-9.96v-18.48h4.08v18.21c0,9.59-5.05,13.53-11.81,13.53-6.39,0-11.21-3.66-11.21-13.34v-18.39h4.08Z"/>
      <path class="st2" d="M491.51,533.88h4.03v27.84h13.34v3.38h-17.37v-31.22Z"/>
      <path class="st2" d="M531.53,537.31h-9.5v-3.43h23.12v3.43h-9.54v27.79h-4.08v-27.79Z"/>
    </g>
  </g>
</svg>
